<?xml version="1.0" encoding="utf-8"?>
<!-- Generator: Adobe Illustrator 19.2.1, SVG Export Plug-In . SVG Version: 6.00 Build 0)  -->
<svg version="1.1" id="makey" xmlns="http://www.w3.org/2000/svg" xmlns:xlink="http://www.w3.org/1999/xlink" x="0px" y="0px"
	 viewBox="0 0 120 122.5" style="enable-background:new 0 0 120 122.5;" xml:space="preserve">
<style type="text/css">
	.st0{clip-path:url(#SVGID_2_);fill:#A6DDEB;}
	.st1{clip-path:url(#SVGID_2_);fill:#FFFFFF;}
	.st2{clip-path:url(#SVGID_2_);fill:#E6E7E7;}
	.st3{opacity:0.5;clip-path:url(#SVGID_2_);fill:#E6E7E7;}
	.st4{clip-path:url(#SVGID_2_);fill:#028E46;}
	.st5{clip-path:url(#SVGID_2_);fill:#00693B;}
	.st6{clip-path:url(#SVGID_2_);fill:#C3996C;}
	.st7{clip-path:url(#SVGID_2_);fill:#47A756;}
	.st8{clip-path:url(#SVGID_2_);fill:#20814F;}
	.st9{clip-path:url(#SVGID_2_);fill:#006133;}
	.st10{clip-path:url(#SVGID_2_);}
	.st11{fill:#ED1C24;}
	.st12{fill:#FFFFFF;}
</style>
<g>
	<defs>
		<circle id="SVGID_1_" cx="60.2" cy="60.9" r="57.5"/>
	</defs>
	<clipPath id="SVGID_2_">
		<use xlink:href="#SVGID_1_"  style="overflow:visible;"/>
	</clipPath>
	<rect x="-18" y="-1.2" class="st0" width="148.7" height="104.6"/>
	<path id="XMLID_1115_" class="st1" d="M85.1,32.9c0.6,0,1.2-0.5,1.2-1.1c0-0.6-0.5-1.2-1.1-1.2l-0.1,0c0-0.1,0.1-0.3,0.1-0.4
		c0-1.1-0.8-2-1.9-2c-0.3,0-0.6,0-0.8,0.1c-0.1-2.2-1.9-4-4.1-4.1c-1.7-0.1-3.2,0.9-4,2.4c-0.3-0.1-0.7-0.2-1-0.2
		c-1.8-0.1-3.3,1.4-3.4,3.2c0,0.2,0,0.4,0,0.5l-1.5-0.1c-0.6,0-1.2,0.5-1.2,1.1c0,0.6,0.5,1.2,1.1,1.2L85.1,32.9z"/>
	<path class="st2" d="M-14.1,42.1h-1.3c0.2-0.2,0.3-0.5,0.3-0.8c0-0.8-0.7-1.5-1.5-1.5c-0.3,0-0.5,0.1-0.7,0.2
		c-0.1-0.5-0.3-0.9-0.6-1.2v3.9h3.9c0.2,0,0.3-0.1,0.3-0.3C-13.8,42.2-13.9,42.1-14.1,42.1z"/>
	<path id="XMLID_1059_" class="st3" d="M-9,36.9l5.2,0c-0.1-0.3-0.1-0.6-0.1-0.9c0-2.4,2-4.4,4.4-4.4c0.8,0,1.5,0.2,2.2,0.6
		C3,32,3.4,31.9,3.8,31.8c0.5-2.5,2.6-4.3,5.2-4.3c0.2,0,0.4,0,0.6,0c0.1-6.1,5.1-11,11.3-11c5.6,0,10.2,4.1,11.1,9.4
		c1.2-0.7,2.5-1.1,3.9-1.1c4.3,0,7.7,3.5,7.7,7.8c0,1.6-0.5,3.1-1.4,4.4l7,0c1,0,1.7,0.8,1.7,1.7c0,1-0.8,1.7-1.7,1.7L-9,40.4
		c-1,0-1.7-0.8-1.7-1.7C-10.7,37.7-9.9,36.9-9,36.9z"/>
	<path id="XMLID_2_" class="st1" d="M36.3,13.5h1c0-0.1,0-0.1,0-0.2c0-0.5,0.4-0.8,0.8-0.8c0.2,0,0.3,0,0.4,0.1
		c0.1,0,0.1-0.1,0.2-0.1c0.1-0.5,0.5-0.8,1-0.8c0,0,0.1,0,0.1,0c0-1.2,1-2.1,2.1-2.1c1.1,0,1.9,0.8,2.1,1.8c0.2-0.1,0.5-0.2,0.7-0.2
		c0.8,0,1.5,0.7,1.5,1.5c0,0.3-0.1,0.6-0.3,0.8h1.3c0.2,0,0.3,0.1,0.3,0.3c0,0.2-0.1,0.3-0.3,0.3H36.3c-0.2,0-0.3-0.1-0.3-0.3
		C36,13.7,36.1,13.5,36.3,13.5z"/>
	<path class="st0" d="M89.6,66.2c-29,3.1-72.4-11.7-72.4-11.7C3,61.4-14.9,60.3-14.9,60.3s-1.1,0.1-3.1,0.3v33.6L118.2,94l12.5,0
		V58.5C116.5,64.2,89.6,66.2,89.6,66.2z"/>
	<path class="st4" d="M-18,57.8v30.8h86.1C43.6,74.5,14.3,63.8-18,57.8z"/>
	<polyline class="st5" points="-18,80.1 -18,89 -3.4,89 	"/>
	<path id="XMLID_1_" class="st6" d="M27.5,59.8"/>
	<path class="st7" d="M-18.2,105.7c0,0,78.1,23.7,148.9,24.9V90.2C70.4,64.6-18.5,79.7-18.5,79.7L-18.2,105.7z"/>
	<path class="st8" d="M72.2,87.8c-41-8.5-69-5.4-90.2,0.5v44.4l148.7-0.5v-31.7C117.5,97.6,99.1,93.4,72.2,87.8z"/>
	<path class="st9" d="M-19.1,108.1h1.1v0C-18.7,108.1-19.1,108.1-19.1,108.1z"/>
	<path class="st9" d="M102.3,103.7c-25.8-5.1-31.4-6.4-47.7-6.2s-22.1,2.9-40.8,6.8C-1.8,107.4-14.3,108-18,108v0h148.7v-0.8
		C121.5,106.6,111.5,105.5,102.3,103.7z"/>
	<rect x="-18" y="107.3" class="st9" width="148.7" height="33.2"/>
	<g class="st10">
		<path class="st11" d="M41.9,74L41.5,77l1.1,0.1L42.4,88l-10.6-1.4l2.4-10.5l1.2,0.2l0.4-3l-3.1-0.4c1.3-9.9,7.9-11,11.2-10.9v12.3
			L41.9,74z"/>
		<path class="st11" d="M41,95.5c0,0-7.7,0.3-9.3-7.9l10.2,1.3L41,95.5z"/>
		<path class="st11" d="M44.5,76.7c0,2.5,2,4.5,4.4,4.5h22.6c2.5,0,4.4-2,4.4-4.5V62.6c0-2.5-2-4.5-4.4-4.5H49c-2.5,0-4.4,2-4.4,4.5
			V76.7z"/>
		<rect x="63.7" y="81.8" class="st11" width="9.1" height="6.2"/>
		<polygon class="st11" points="74.2,89.1 63.7,89.1 62.9,98.7 75.9,98.7 		"/>
		<polygon class="st11" points="75.9,99.6 78.6,101.5 78.6,103.3 62.2,103.3 62.2,99.6 		"/>
		<rect x="47.7" y="81.8" class="st11" width="9.1" height="6.2"/>
		<polygon class="st11" points="46.4,89.1 56.8,89.1 57.6,98.7 44.6,98.7 		"/>
		<polygon class="st11" points="44.6,99.6 41.9,101.5 41.9,103.3 58.4,103.3 58.4,99.6 		"/>
		<path class="st11" d="M73,57.3c0-7-5.7-12.7-12.7-12.7c-7,0-12.7,5.7-12.7,12.7H73z"/>
		<path class="st12" d="M64.6,53c0,1.5,1.2,2.7,2.7,2.7c1.5,0,2.7-1.2,2.7-2.7c0-1.5-1.2-2.7-2.7-2.7C65.8,50.2,64.6,51.5,64.6,53"
			/>
		<path class="st12" d="M50.5,53c0,1.5,1.2,2.7,2.7,2.7c1.5,0,2.7-1.2,2.7-2.7c0-1.5-1.2-2.7-2.7-2.7C51.7,50.2,50.5,51.5,50.5,53"
			/>
		<path class="st12" d="M52,69.6c0,4.6,3.7,8.3,8.3,8.3c4.6,0,8.3-3.7,8.3-8.3c0-4.6-3.7-8.3-8.3-8.3C55.7,61.3,52,65,52,69.6"/>
		<rect x="44.5" y="69.8" class="st12" width="31.5" height="0.8"/>
		<polygon class="st11" points="65.6,75.2 65.6,64.1 62.3,64.1 60.3,71.7 58.3,64.1 54.9,64.1 54.9,75.2 57,75.2 57,66.5 59.2,75.2 
			61.3,75.2 63.5,66.5 63.5,75.2 		"/>
		<g>
			<path class="st11" d="M86.3,59.4l2.4-10.5l-10.6-1.4l-0.2,10.9l1.1,0.1l-0.4,2.9l-1.9-0.2v12.3c3.3,0.1,9.8-1,11.1-10.9l-3.1-0.4
				l0.4-3L86.3,59.4z"/>
			<path class="st11" d="M79.5,40l-0.8,6.6l10.2,1.3C87.3,39.7,79.5,40,79.5,40"/>
		</g>
	</g>
</g>
</svg>
