<?xml version="1.0" encoding="utf-8"?>
<!-- Generator: Adobe Illustrator 19.2.1, SVG Export Plug-In . SVG Version: 6.00 Build 0)  -->
<svg version="1.1" id="Isolation_Mode" xmlns="http://www.w3.org/2000/svg" xmlns:xlink="http://www.w3.org/1999/xlink" x="0px"
	 y="0px" viewBox="0 0 1600 506" style="enable-background:new 0 0 1600 506;" xml:space="preserve">
<style type="text/css">
	.st0{opacity:0.15;fill:#A6D5E5;}
</style>
<path class="st0" d="M1087.3,170.4h-49.6c-4.9,0-8.8-4-8.8-8.8c0-4.9,4-8.8,8.8-8.8h0.5c-0.2-1-0.3-2.1-0.3-3.1c0-8.3,6.7-15,15-15
	c2.2,0,4.3,0.5,6.2,1.3c1.2-16.8,15.2-30,32.3-30c13.1,0,24.4,7.8,29.5,19c2.4-0.8,5-1.2,7.7-1.2c13.8,0,25.1,11.2,25.1,25.1
	c0,1.4-0.1,2.8-0.4,4h11.1c4.9,0,8.8,4,8.8,8.8c0,4.9-4,8.8-8.8,8.8h-68.9H1087.3z"/>
<path class="st0" d="M1372.2,274.6h22.6c-0.3-1.3-0.4-2.6-0.4-4c0-10.6,8.6-19.2,19.2-19.2c3.5,0,6.8,0.9,9.6,2.6
	c1.4-0.8,3-1.5,4.6-1.9c2.1-10.7,11.5-18.8,22.8-18.8c0.9,0,1.8,0.1,2.7,0.2c0.6-26.6,22.3-48,49.1-48c24.4,0,44.5,17.7,48.4,41
	c5-3,10.8-4.7,17.1-4.7c18.6,0,33.8,15.1,33.8,33.8c0,7.1-2.2,13.6-5.9,19.1h30.4c4.2,0,7.6,3.4,7.6,7.6c0,4.2-3.4,7.6-7.6,7.6
	h-253.8c-4.2,0-7.6-3.4-7.6-7.6C1364.7,278,1368.1,274.6,1372.2,274.6z"/>
<path class="st0" d="M42.5,276.4H-7.2c-4.9,0-8.8-4-8.8-8.8c0-4.9,4-8.8,8.8-8.8h0.5c-0.2-1-0.3-2.1-0.3-3.1c0-8.3,6.7-15,15-15
	c2.2,0,4.3,0.5,6.2,1.3c1.2-16.8,15.2-30,32.3-30c13.1,0,24.4,7.8,29.5,19c2.4-0.8,5-1.2,7.7-1.2c13.8,0,25.1,11.2,25.1,25.1
	c0,1.4-0.1,2.8-0.4,4h11.1c4.9,0,8.8,4,8.8,8.8c0,4.9-4,8.8-8.8,8.8H50.6H42.5z"/>
<path class="st0" d="M327.4,380.6H350c-0.3-1.3-0.4-2.6-0.4-4c0-10.6,8.6-19.2,19.2-19.2c3.5,0,6.8,0.9,9.6,2.6
	c1.4-0.8,3-1.5,4.6-1.9c2.1-10.7,11.5-18.8,22.8-18.8c0.9,0,1.8,0.1,2.7,0.2c0.6-26.6,22.3-48,49.1-48c24.4,0,44.5,17.7,48.4,41
	c5-3,10.8-4.7,17.1-4.7c18.6,0,33.8,15.1,33.8,33.8c0,7.1-2.2,13.6-5.9,19.1h30.4c4.2,0,7.6,3.4,7.6,7.6c0,4.2-3.4,7.6-7.6,7.6
	H327.4c-4.2,0-7.6-3.4-7.6-7.6C319.8,384,323.2,380.6,327.4,380.6z"/>
</svg>
